<svg width="23" height="23" viewBox="0 0 23 23" fill="none" xmlns="http://www.w3.org/2000/svg">
<path d="M18.9966 17.0495L18.5797 15.3784C18.4034 14.6823 18.0004 14.0646 17.4343 13.6228C16.8682 13.181 16.1712 12.9402 15.4531 12.9382V6.95822C15.4652 5.90692 15.0669 4.89233 14.3428 4.13002C13.6188 3.36771 12.626 2.91774 11.5755 2.87572C11.05 2.86569 10.5278 2.96053 10.0395 3.15469C9.55113 3.34886 9.10638 3.63845 8.73127 4.00654C8.35616 4.37463 8.05821 4.81381 7.85484 5.29841C7.65148 5.78301 7.54678 6.3033 7.54688 6.82885V12.9382H7.49656C7.52976 12.9909 7.54722 13.052 7.54688 13.1143C7.54688 14.4009 9.16047 15.4503 11.1406 15.4503C11.2359 15.4503 11.3273 15.4881 11.3947 15.5555C11.4621 15.6229 11.5 15.7143 11.5 15.8096C11.5 15.9049 11.4621 15.9963 11.3947 16.0637C11.3273 16.1311 11.2359 16.169 11.1406 16.169C8.76156 16.169 6.82812 14.7998 6.82812 13.1143C6.82673 13.0799 6.83286 13.0455 6.84609 13.0137C6.26311 13.1448 5.72784 13.4348 5.29965 13.8515C4.87146 14.2683 4.56709 14.7956 4.42031 15.3748L4.00344 17.0459C3.97065 17.1092 3.9534 17.1794 3.95312 17.2507C3.95312 18.2426 7.33125 20.1257 11.5 20.1257C15.6688 20.1257 19.0469 18.2426 19.0469 17.2507C19.046 17.1806 19.0288 17.1117 18.9966 17.0495ZM11.5 12.2195C10.8328 12.2195 10.193 11.9544 9.72118 11.4827C9.24941 11.0109 8.98438 10.371 8.98438 9.70385V7.5476C8.98381 7.27258 9.02874 6.99936 9.11734 6.739C9.13026 6.72297 9.14612 6.70955 9.16406 6.69947C9.17456 6.68577 9.18809 6.6747 9.20359 6.66713C9.24313 6.63119 9.28984 6.59885 9.33297 6.5665L9.43 6.50181L9.51266 6.4515C9.55267 6.4264 9.59475 6.40476 9.63844 6.38681L9.72469 6.34369C9.76281 6.32277 9.80245 6.30475 9.84328 6.28978L9.91516 6.26463C9.97093 6.24064 10.0286 6.2214 10.0877 6.20713C10.1559 6.18556 10.2278 6.17119 10.2961 6.15681C10.3709 6.14204 10.4465 6.13124 10.5225 6.12447C10.6083 6.11405 10.6948 6.10925 10.7812 6.1101H12.2188C12.3037 6.10463 12.3889 6.10463 12.4739 6.1101C12.5499 6.11686 12.6255 6.12766 12.7003 6.14244C12.7707 6.15539 12.8402 6.17219 12.9087 6.19275C12.9676 6.20758 13.0253 6.2268 13.0813 6.25025L13.1531 6.27541C13.194 6.29037 13.2336 6.30839 13.2717 6.32931C13.3018 6.34077 13.3307 6.35521 13.358 6.37244C13.4017 6.39038 13.4437 6.41203 13.4838 6.43713L13.5592 6.48385C13.6076 6.51374 13.6544 6.54612 13.6994 6.58088H13.7245C13.7771 6.61873 13.8275 6.65952 13.8755 6.70306C13.8755 6.65635 13.8467 6.61322 13.8287 6.5701C13.9576 6.8796 14.0212 7.21238 14.0156 7.5476V9.70385C14.0156 10.371 13.7506 11.0109 13.2788 11.4827C12.807 11.9544 12.1672 12.2195 11.5 12.2195Z" fill="black"/>
</svg>
