<?xml version="1.0" encoding="UTF-8" standalone="no"?>
<svg
   version="1.1"
   x="0px"
   y="0px"
   viewBox="0 0 30.306309 24"
   xml:space="preserve"
   id="svg10"
   sodipodi:docname="food_truck.svg"
   width="30.306309"
   height="24"
   inkscape:version="1.1.2 (0a00cf5339, 2022-02-04)"
   xmlns:inkscape="http://www.inkscape.org/namespaces/inkscape"
   xmlns:sodipodi="http://sodipodi.sourceforge.net/DTD/sodipodi-0.dtd"
   xmlns="http://www.w3.org/2000/svg"
   xmlns:svg="http://www.w3.org/2000/svg"><defs
     id="defs14" /><sodipodi:namedview
     id="namedview12"
     pagecolor="#ffffff"
     bordercolor="#000000"
     borderopacity="0.25"
     inkscape:pageshadow="2"
     inkscape:pageopacity="0.0"
     inkscape:pagecheckerboard="0"
     showgrid="false"
     inkscape:zoom="7.9573083"
     inkscape:cx="4.7754842"
     inkscape:cy="16.651359"
     inkscape:window-width="1920"
     inkscape:window-height="1016"
     inkscape:window-x="0"
     inkscape:window-y="27"
     inkscape:window-maximized="1"
     inkscape:current-layer="svg10" /><g
     id="g4"
     transform="matrix(1.2896302,0,0,1.2896302,-4.1912981,-7.3444534)"><path
       d="M 24.770019,14.474976 H 24.23999 l -0.580017,-2.51001 C 23.450012,11.065002 22.650024,10.434998 21.72998,10.434998 H 18.789978 V 8.0249634 c 0,-1.289978 -1.049988,-2.3299561 -2.329956,-2.3299561 H 5.4600219 C 4.2399902,5.6950073 3.25,6.6849976 3.25,7.9049683 V 19.625 c 0,1.219971 0.9899902,2.209961 2.210022,2.209961 h 0.7999878 c 0.4299927,1.429993 1.75,2.470032 3.3099976,2.470032 1.5599976,0 2.8900146,-1.04004 3.3200076,-2.470032 0.188314,0 4.82827,0 4.71997,0 0.429993,1.429993 1.75,2.470032 3.309998,2.470032 1.570007,0 2.890015,-1.04004 3.320007,-2.470032 h 0.53003 c 1.099975,0 1.97998,-0.880005 1.97998,-1.979981 v -3.400024 c 0,-1.099975 -0.880005,-1.97998 -1.979981,-1.97998 z M 9.5700073,22.304993 c -0.8142118,0 -1.460022,-0.681244 -1.460022,-1.470032 0,-0.809998 0.6500244,-1.469971 1.460022,-1.469971 0.8099977,0 1.4699707,0.659973 1.4699707,1.469971 0,0.801771 -0.657126,1.470032 -1.4699707,1.470032 z M 13.169983,11.034973 10.190002,13.35498 C 9.7640848,13.686298 9.1225338,13.624647 8.7800293,13.174988 l -1.1500244,-1.51001 c -0.3400269,-0.440002 -0.25,-1.070007 0.1900024,-1.400024 0.4299927,-0.3399662 1.0599976,-0.25 1.4000244,0.190002 l 0.539978,0.700012 2.1799923,-1.700012 C 12.369995,9.125 13,9.1950073 13.340027,9.6350098 c 0.339966,0.4399412 0.259949,1.0599972 -0.170044,1.3999632 z m 7.75,11.27002 c -0.814341,0 -1.459961,-0.681244 -1.459961,-1.470032 0,-0.809998 0.659973,-1.469971 1.459961,-1.469971 0.809997,0 1.470032,0.659973 1.470032,1.469971 0,0.802839 -0.658545,1.470032 -1.470032,1.470032 z m -1.579956,-9.869995 h 1.899963 c 0.230042,0 0.440003,0.149963 0.52002,0.369995 l 0.609985,1.789978 c 0.119995,0.359985 -0.140014,0.72998 -0.520019,0.72998 h -2.509949 c -0.300049,0 -0.550049,-0.25 -0.550049,-0.549988 v -1.789978 c 0,-0.299987 0.25,-0.549987 0.550049,-0.549987 z"
       id="path2" /></g></svg>
