<?xml version="1.0" encoding="UTF-8" standalone="no"?>
<svg
   version="1.1"
   viewBox="0 0 40.277323 24.000001"
   x="0px"
   y="0px"
   id="svg10"
   sodipodi:docname="food_plate.svg"
   width="40.277325"
   height="24"
   inkscape:version="1.1.2 (0a00cf5339, 2022-02-04)"
   xmlns:inkscape="http://www.inkscape.org/namespaces/inkscape"
   xmlns:sodipodi="http://sodipodi.sourceforge.net/DTD/sodipodi-0.dtd"
   xmlns="http://www.w3.org/2000/svg"
   xmlns:svg="http://www.w3.org/2000/svg">
  <defs
     id="defs14" />
  <sodipodi:namedview
     id="namedview12"
     pagecolor="#ffffff"
     bordercolor="#000000"
     borderopacity="0.25"
     inkscape:pageshadow="2"
     inkscape:pageopacity="0.0"
     inkscape:pagecheckerboard="0"
     showgrid="false"
     inkscape:zoom="14.04235"
     inkscape:cx="7.5485941"
     inkscape:cy="6.0887245"
     inkscape:window-width="1920"
     inkscape:window-height="1016"
     inkscape:window-x="0"
     inkscape:window-y="27"
     inkscape:window-maximized="1"
     inkscape:current-layer="svg10" />
  <g
     data-name=""
     id="g4"
     transform="matrix(1.2586664,0,0,1.2586664,-1.2584147,-9.3970775)">
    <path
       transform="matrix(1,0,0,-1,0,33.9999)"
       d="m 15.4352,25.043 c 0.3662,0.0394 0.7367,0.0654 1.1109,0.0768 l 0.0383,0.0014 0.0578,0.0014 h 0.0043 l 0.015,3e-4 c 0.1131,0.0028 0.2262,0.0042 0.3387,0.0042 0.1126,0 0.2254,-0.0014 0.3385,-0.0042 l 0.0178,-3e-4 0.0292,-6e-4 0.0304,-8e-4 0.0368,-0.0014 c 0.3739,-0.0111 0.745,-0.0369 1.1115,-0.0768 v 1.116 c 0,0.1034 -0.0423,0.1978 -0.1094,0.2656 -0.0678,0.0671 -0.1622,0.1094 -0.2656,0.1094 h -2.3792 c -0.1034,0 -0.1978,-0.0423 -0.2656,-0.1094 -0.0672,-0.0678 -0.1094,-0.1622 -0.1094,-0.2656 z M 3.6408,11.2235 h 13.3594 13.3591 c -0.1357,3.4679 -1.5922,6.5965 -3.8783,8.896 l -0.027,0.0249 c -1.9663,1.9664 -4.5436,3.3233 -7.4222,3.7624 l -0.0212,0.0029 c -0.5417,0.0822 -1.0948,0.1312 -1.6558,0.1462 h -0.0011 c -0.1176,0.0029 -0.2353,0.0046 -0.3535,0.0046 -0.1182,0 -0.2361,-0.0017 -0.3535,-0.0046 H 16.6456 C 16.1952,24.044 15.7501,24.0103 15.3119,23.9547 l -0.0062,-8e-4 -0.165,-0.0221 -0.0156,-0.002 C 12.183,23.5171 9.5479,22.1462 7.5461,20.1444 5.2444,17.8427 3.7772,14.7039 3.6408,11.2235 Z M 32.6316,10.1568 H 30.903 17.0002 3.0969 1.368 c -0.1006,0 -0.193,-0.0417 -0.2597,-0.1083 C 1.0414,9.9819 0.9998,9.8895 0.9998,9.7889 V 8.8115 C 0.9998,8.4421 1.1514,8.1054 1.3952,7.8616 1.639,7.6178 1.9755,7.4662 2.3451,7.4662 h 29.3094 c 0.3693,0 0.7061,0.1516 0.9499,0.3954 0.2438,0.2438 0.3954,0.5805 0.3954,0.9499 v 0.9774 c 0,0.1006 -0.0417,0.193 -0.1086,0.2596 -0.0666,0.0666 -0.159,0.1083 -0.2596,0.1083"
       id="path2" />
  </g>
</svg>
