<svg width="39" height="39" viewBox="0 0 39 39" fill="none" xmlns="http://www.w3.org/2000/svg">
<path d="M7.56097 10.5174C7.77425 11.1512 7.7194 11.8708 7.35987 12.4918C7.00034 13.1255 6.40315 13.5277 5.73893 13.6557C5.17831 13.7776 4.56893 13.6983 4.03268 13.3876C2.86878 12.7118 2.46659 11.2243 3.1369 10.0543C3.8127 8.89037 5.30628 8.48819 6.47018 9.16459C7.01253 9.47537 7.39034 9.96897 7.56097 10.5174Z" fill="#D7E9FF"/>
<path d="M17.6838 4.66797C18.1225 5.16766 18.7745 5.48453 19.4997 5.48453C20.2188 5.48453 20.8708 5.17375 21.3156 4.67406C22.7593 5.35656 23.7653 6.82516 23.7653 8.53141C23.7653 8.59844 23.7653 8.66547 23.7592 8.7325C20.9622 7.62344 17.9153 7.67889 15.2402 8.73859V8.7325C15.2341 8.66547 15.2341 8.59844 15.2341 8.53141C15.2341 6.83125 16.2335 5.36266 17.6716 4.68016L17.6838 4.66797ZM12.1324 10.323C12.1933 10.3595 12.2475 10.3894 12.303 10.4266L12.3091 10.4327C11.1939 11.3041 10.225 12.407 9.47549 13.7111C8.71986 15.0152 8.25064 16.4045 8.04346 17.8061C7.98191 17.7756 7.92768 17.7452 7.86674 17.7153C6.39205 16.8622 5.61814 15.265 5.74611 13.6751L5.74002 13.6569C6.40424 13.5289 7.00143 13.1267 7.36096 12.493C7.72049 11.8714 7.77533 11.1523 7.56205 10.5186C8.8783 9.60391 10.6577 9.46984 12.1324 10.323Z" fill="#94C1FF"/>
<path d="M35.8602 10.0543C36.5311 11.2243 36.1344 12.7112 34.9644 13.3876C34.4282 13.699 33.8127 13.7782 33.2521 13.6557C32.594 13.5216 31.9962 13.1133 31.6372 12.4918C31.2777 11.8702 31.2229 11.1512 31.4422 10.5113C31.6129 9.96348 31.9907 9.47537 32.5269 9.16459C33.6969 8.48819 35.1838 8.89037 35.8602 10.0543Z" fill="#D7E9FF"/>
<path d="M8.0422 17.8059C8.24938 16.4043 8.71799 15.0149 9.47423 13.7109C10.2238 12.4068 11.1927 11.3038 12.3078 10.4324C13.2036 9.71337 14.1908 9.14665 15.2389 8.73837C17.9147 7.67867 20.9616 7.62322 23.758 8.73228C24.2759 8.93947 24.7872 9.18931 25.2875 9.47572C25.7872 9.76273 26.2503 10.079 26.6891 10.4324C29.0534 12.291 30.5281 14.9601 30.9425 17.8059C31.1192 18.921 31.1192 20.0606 30.9547 21.1946C30.7475 22.5962 30.2789 23.9855 29.5288 25.2896C28.7798 26.5937 27.8103 27.6905 26.6952 28.5741C25.7994 29.2877 24.8061 29.8544 23.7586 30.2627C21.0828 31.323 18.0359 31.3779 15.2395 30.2688C14.7216 30.0616 14.2103 29.8179 13.71 29.5315C13.2097 29.2451 12.7411 28.9221 12.3023 28.5747C9.94406 26.7046 8.46937 24.0416 8.0489 21.1958C7.88376 20.0788 7.87767 18.9393 8.0422 17.8059ZM15.6228 23.3817C17.5302 25.2829 20.6081 25.2829 22.5155 23.3817C24.4167 21.4743 27.0066 15.801 25.0992 13.8998C23.198 11.9918 17.5241 14.5817 15.6228 16.4829C13.7155 18.3903 13.7155 21.4737 15.6167 23.381L15.6228 23.3817Z" fill="white"/>
<path d="M7.36014 26.5074C7.72577 27.135 7.77452 27.8541 7.56124 28.4879C7.38452 29.0424 7.0067 29.5299 6.47045 29.8407C5.30655 30.5116 3.81358 30.1149 3.13717 28.9449C2.46625 27.781 2.86905 26.288 4.03295 25.6177C4.5753 25.3008 5.18467 25.2216 5.75139 25.3435C6.40342 25.4782 7.00061 25.8858 7.36014 26.5074Z" fill="#D7E9FF"/>
<path d="M31.1316 21.2915C32.6063 22.144 33.3802 23.7412 33.2522 25.3316V25.3438C32.5941 25.4785 31.9963 25.8801 31.6373 26.5077C31.2784 27.1354 31.223 27.8544 31.4363 28.4882C30.12 29.4023 28.3406 29.5363 26.8659 28.6832C26.805 28.646 26.7508 28.6101 26.6953 28.5729C27.8105 27.6899 28.78 26.5924 29.5289 25.2884C30.2784 23.9843 30.7477 22.5949 30.9548 21.1934C31.0158 21.2244 31.0706 21.261 31.1316 21.2915Z" fill="#94C1FF"/>
<path d="M19.5 0.609375C20.8467 0.609375 21.9375 1.70016 21.9375 3.04688C21.9375 3.67453 21.6998 4.24734 21.3159 4.67391C20.8711 5.17359 20.2191 5.48438 19.5 5.48438C18.7748 5.48438 18.1228 5.1675 17.6841 4.66781C17.2941 4.24125 17.0625 3.67453 17.0625 3.04688C17.0625 1.70016 18.1533 0.609375 19.5 0.609375Z" fill="#D7E9FF"/>
<path d="M8.04872 21.194C8.46919 24.0398 9.94387 26.7028 12.3022 28.573C12.2467 28.6101 12.1919 28.6461 12.1315 28.6833C10.6568 29.5303 8.88966 29.4023 7.57341 28.4937L7.56122 28.4876C7.7745 27.8539 7.72575 27.1348 7.36013 26.5072C7.00059 25.8856 6.40341 25.4779 5.75138 25.3433C5.6167 23.7534 6.39122 22.1441 7.86591 21.2915C7.92684 21.2605 7.98108 21.2245 8.04263 21.194H8.04872ZM31.4426 10.5117C31.2239 11.1515 31.2781 11.8706 31.6376 12.4922C31.9972 13.1143 32.5943 13.522 33.2525 13.6561C33.3865 15.2526 32.6059 16.8553 31.1318 17.7145C31.0709 17.745 31.0167 17.7754 30.9551 17.8053H30.9429C30.528 14.9595 29.0533 12.2905 26.6895 10.4319L26.6956 10.4258C26.751 10.3886 26.8059 10.3526 26.8662 10.3222C28.3409 9.46905 30.1081 9.59702 31.4243 10.505L31.4426 10.5117ZM21.327 34.3261L21.3209 34.3322C20.8761 33.8331 20.224 33.5156 19.4989 33.5156C18.7737 33.5156 18.1217 33.8331 17.6829 34.3322H17.6768C16.2393 33.6436 15.2332 32.175 15.2332 30.4687C15.2332 30.4017 15.2332 30.3347 15.2393 30.2676C18.0364 31.3767 21.0832 31.3218 23.7584 30.2615V30.2676C23.7645 30.3347 23.7645 30.4017 23.7645 30.4687C23.7645 32.175 22.7712 33.6436 21.327 34.3261Z" fill="#94C1FF"/>
<path d="M21.322 34.3326C21.7059 34.7592 21.9375 35.3259 21.9375 35.9535C21.9375 37.3003 20.8467 38.391 19.5 38.391C18.1533 38.391 17.0625 37.3003 17.0625 35.9535C17.0625 35.3259 17.2941 34.7592 17.678 34.3326H17.6841C18.1234 33.8335 18.7748 33.516 19.5 33.516C20.2252 33.516 20.8772 33.8335 21.322 34.3326ZM34.9659 25.6185C36.1359 26.2889 36.532 27.7818 35.8617 28.9457C35.1859 30.1157 33.6984 30.5118 32.5284 29.8415C31.9922 29.5307 31.6144 29.0432 31.4377 28.4887C31.2244 27.855 31.2792 27.1359 31.6387 26.5082C31.9983 25.8806 32.5955 25.479 33.2536 25.3443C33.8203 25.2225 34.4297 25.3078 34.9659 25.6185Z" fill="#D7E9FF"/>
<path d="M15.6246 23.3814H15.6185C13.7173 21.4741 13.7173 18.3907 15.6246 16.4833C17.5259 14.5821 23.1998 11.9922 25.101 13.9002C27.0084 15.8008 24.4185 21.4747 22.5173 23.382C20.6093 25.2827 17.532 25.2827 15.6246 23.3814Z" fill="#94C1FF"/>
<path d="M19.5 6.09375C17.82 6.09375 16.4531 4.72692 16.4531 3.04688C16.4531 1.36683 17.82 0 19.5 0C21.18 0 22.5469 1.36683 22.5469 3.04688C22.5469 4.72692 21.18 6.09375 19.5 6.09375ZM19.5 1.21875C18.4921 1.21875 17.6719 2.03897 17.6719 3.04688C17.6719 4.05478 18.4921 4.875 19.5 4.875C20.5079 4.875 21.3281 4.05478 21.3281 3.04688C21.3281 2.03897 20.5079 1.21875 19.5 1.21875Z" fill="#432B75"/>
<path d="M23.7614 9.34119C23.7498 9.34119 23.7394 9.34119 23.7278 9.34058C23.3915 9.3223 23.1337 9.03528 23.152 8.69891C23.155 8.64345 23.1562 8.588 23.1562 8.53133C23.1562 7.12184 22.3312 5.82266 21.0551 5.22181C20.7504 5.07861 20.62 4.71542 20.7632 4.41073C20.907 4.10666 21.269 3.97503 21.5743 4.11884C23.2751 4.91956 24.375 6.65202 24.375 8.53133C24.375 8.60933 24.3738 8.68733 24.3695 8.76472C24.3518 9.08952 24.0831 9.34119 23.7614 9.34119ZM15.238 9.34119C14.9145 9.34119 14.6445 9.08586 14.6299 8.75923C14.6262 8.68306 14.625 8.6075 14.625 8.53133C14.625 6.65872 15.7182 4.92931 17.4105 4.12616C17.7151 3.98234 18.0783 4.11153 18.2221 4.41561C18.3666 4.71969 18.2368 5.08288 17.9327 5.2273C16.664 5.82936 15.8438 7.12611 15.8438 8.53133C15.8438 8.58983 15.845 8.64711 15.8474 8.70439C15.862 9.04077 15.6024 9.32595 15.2661 9.34058C15.2563 9.34119 15.2472 9.34119 15.238 9.34119ZM19.5 39.0001C17.82 39.0001 16.4531 37.6332 16.4531 35.9532C16.4531 34.2732 17.82 32.9063 19.5 32.9063C21.18 32.9063 22.5469 34.2732 22.5469 35.9532C22.5469 37.6332 21.18 39.0001 19.5 39.0001ZM19.5 34.1251C18.4921 34.1251 17.6719 34.9453 17.6719 35.9532C17.6719 36.9611 18.4921 37.7813 19.5 37.7813C20.5079 37.7813 21.3281 36.9611 21.3281 35.9532C21.3281 34.9453 20.5079 34.1251 19.5 34.1251Z" fill="#432B75"/>
<path d="M17.6847 34.939C17.5975 34.939 17.5098 34.9207 17.4257 34.8811C15.7249 34.0804 14.625 32.3479 14.625 30.4686C14.625 30.3906 14.6262 30.3126 14.6305 30.2352C14.6488 29.8988 14.9376 29.6386 15.2722 29.6594C15.6085 29.6776 15.8663 29.9647 15.848 30.301C15.845 30.3565 15.8438 30.4119 15.8438 30.4686C15.8438 31.8781 16.6688 33.1773 17.9449 33.7781C18.2496 33.9213 18.38 34.2845 18.2368 34.5892C18.1332 34.8098 17.9138 34.939 17.6847 34.939ZM21.3287 34.9329C21.1008 34.9329 20.8821 34.8043 20.7779 34.5849C20.6334 34.2809 20.7632 33.9177 21.0673 33.7733C22.336 33.1706 23.1562 31.8738 23.1562 30.4686C23.1562 30.4101 23.155 30.3528 23.1526 30.2955C23.138 29.9592 23.3976 29.674 23.7339 29.6594C24.0606 29.6453 24.3549 29.9037 24.3701 30.2407C24.3738 30.3169 24.375 30.3924 24.375 30.4686C24.375 32.3412 23.2818 34.0706 21.5895 34.8738C21.5048 34.914 21.4165 34.9329 21.3287 34.9329Z" fill="#432B75"/>
<path d="M19.4868 31.689C17.3601 31.689 15.2578 31.1235 13.4065 30.0552C10.5887 28.4282 8.5723 25.8 7.72954 22.6538C6.88677 19.5088 7.31821 16.2242 8.94524 13.4065C11.1158 9.64726 15.1657 7.31152 19.5142 7.31152C21.641 7.31152 23.7433 7.87702 25.5946 8.94526C28.4123 10.5723 30.4288 13.2005 31.2715 16.3467C32.1143 19.4923 31.6828 22.7769 30.0558 25.5946C27.8852 29.3532 23.8347 31.689 19.4868 31.689ZM19.5136 8.53027C15.599 8.53027 11.9537 10.632 10.0007 14.0159C8.53635 16.5515 8.14818 19.5076 8.90624 22.3387C9.66491 25.1699 11.4796 27.5355 14.0159 28.9998C15.6813 29.9614 17.5734 30.4702 19.4868 30.4702C23.4014 30.4702 27.0467 28.3685 28.9998 24.9846C30.4641 22.449 30.8523 19.4929 30.0942 16.6618C29.3355 13.83 27.5208 11.4644 24.9846 10.0007C23.3192 9.0391 21.4271 8.53027 19.5136 8.53027ZM5.24816 14.3212C4.71679 14.3212 4.1909 14.1804 3.72777 13.9129C2.27258 13.0719 1.7729 11.2048 2.61262 9.75024C3.15557 8.81059 4.16713 8.2268 5.25365 8.2268C5.78563 8.2268 6.31152 8.36757 6.77465 8.63509C8.22922 9.4748 8.72952 11.3419 7.89041 12.7971C7.34746 13.7374 6.33529 14.3212 5.24816 14.3212ZM5.25365 9.44555C4.60162 9.44555 3.99407 9.79534 3.66805 10.3596C3.1641 11.2329 3.46391 12.3529 4.33715 12.8574C4.61502 13.0177 4.93007 13.1024 5.24816 13.1024C5.9008 13.1024 6.50896 12.752 6.83497 12.1877C7.33832 11.3145 7.03851 10.1945 6.16527 9.69052C5.8874 9.53026 5.57235 9.44555 5.25365 9.44555Z" fill="#432B75"/>
<path d="M7.56416 11.1237C7.3716 11.1237 7.18148 11.0329 7.06326 10.8617C6.8713 10.5856 6.93955 10.206 7.21621 10.0134C8.76037 8.94033 10.8097 8.85441 12.4379 9.79346C12.508 9.83428 12.5751 9.8745 12.6403 9.91716C12.9212 10.103 12.9986 10.4808 12.8133 10.7618C12.6281 11.0421 12.2503 11.1195 11.9687 10.9348C11.9224 10.9037 11.8749 10.8757 11.8267 10.8477C10.6062 10.1438 9.07054 10.209 7.9109 11.014C7.80548 11.0884 7.68421 11.1237 7.56416 11.1237ZM8.04252 18.4161C7.94746 18.4161 7.85057 18.3936 7.75977 18.3466C7.69457 18.3119 7.62998 18.2766 7.56538 18.2394C5.94079 17.3016 4.98955 15.4899 5.14068 13.6228C5.1681 13.2876 5.45268 13.0445 5.79759 13.0646C6.13274 13.092 6.38259 13.3857 6.35577 13.7215C6.24182 15.1218 6.9554 16.4801 8.17232 17.1827C8.22168 17.2114 8.27409 17.24 8.32649 17.2674C8.62448 17.424 8.73965 17.7921 8.58304 18.0907C8.47335 18.2973 8.2619 18.4161 8.04252 18.4161ZM33.7454 30.7742C33.214 30.7742 32.6881 30.6335 32.225 30.366C30.7704 29.5256 30.2701 27.6585 31.1092 26.2033C31.6528 25.2637 32.6649 24.6799 33.7508 24.6799C34.2828 24.6799 34.8087 24.8206 35.2718 25.0882C36.727 25.9285 37.2267 27.795 36.387 29.2502C35.844 30.1905 34.8319 30.7742 33.7454 30.7742ZM33.7508 25.8986C33.0988 25.8986 32.4906 26.2484 32.1646 26.8127C31.6613 27.6859 31.9617 28.806 32.8343 29.3105C33.1122 29.4708 33.4273 29.5555 33.7454 29.5555C34.398 29.5555 35.0055 29.2051 35.3316 28.6408C35.8355 27.7676 35.5357 26.6475 34.6625 26.1436C34.3846 25.9833 34.0689 25.8986 33.7508 25.8986Z" fill="#432B75"/>
<path d="M28.9967 29.8558C28.1558 29.8558 27.3136 29.6401 26.5617 29.2068C26.491 29.1654 26.4246 29.1258 26.36 29.0831C26.079 28.8973 26.0016 28.5195 26.1869 28.2385C26.3728 27.9576 26.75 27.8808 27.0315 28.0655C27.0784 28.0966 27.1266 28.1252 27.1753 28.1538C28.3916 28.8571 29.9303 28.7918 31.0881 27.9863C31.3654 27.7943 31.7444 27.8626 31.937 28.1386C32.1289 28.4153 32.0607 28.7949 31.7846 28.9875C30.9528 29.5639 29.9754 29.8558 28.9967 29.8558ZM33.252 25.9375C33.2355 25.9375 33.2191 25.9369 33.202 25.9357C32.8669 25.9083 32.617 25.6146 32.6438 25.2788C32.7578 23.8785 32.0442 22.5202 30.8273 21.8176C30.7767 21.7883 30.7255 21.7597 30.6737 21.7329C30.3757 21.5762 30.2606 21.2082 30.4172 20.9096C30.5744 20.6122 30.9418 20.4983 31.2404 20.653C31.3063 20.6884 31.3721 20.7237 31.4367 20.7615C33.0588 21.6981 34.0101 23.5098 33.8595 25.3769C33.8333 25.6962 33.5664 25.9375 33.252 25.9375ZM5.25426 30.7741C4.16774 30.7741 3.15557 30.1904 2.61262 29.2501C1.7729 27.7955 2.27258 25.9284 3.72777 25.0881C4.1909 24.8212 4.71679 24.6798 5.24877 24.6798C6.33468 24.6798 7.34685 25.2636 7.89041 26.2026C8.72891 27.6584 8.22923 29.5249 6.77587 30.3659C6.31152 30.6334 5.78624 30.7741 5.25426 30.7741ZM5.24877 25.8985C4.93068 25.8985 4.61502 25.9832 4.33715 26.1435C3.46452 26.6475 3.1641 27.7675 3.66866 28.6407C3.99407 29.205 4.60162 29.5554 5.25487 29.5554C5.57296 29.5554 5.88862 29.4701 6.1671 29.3104C7.03851 28.8065 7.33893 27.6858 6.83558 26.812C6.50896 26.2489 5.90141 25.8985 5.24877 25.8985Z" fill="#432B75"/>
<path d="M5.75017 25.9533C5.43634 25.9533 5.17005 25.7126 5.14384 25.3945C4.98663 23.52 5.93725 21.7017 7.56489 20.762C7.6435 20.7175 7.70809 20.6804 7.77573 20.6475C8.07738 20.4982 8.44239 20.6219 8.5923 20.9235C8.74159 21.2251 8.61789 21.5908 8.31625 21.7401C8.27116 21.762 8.22728 21.7876 8.18341 21.8126C6.95369 22.5225 6.24072 23.8863 6.35833 25.2933C6.38697 25.6285 6.13774 25.9228 5.80197 25.9508C5.78369 25.9527 5.76663 25.9533 5.75017 25.9533ZM10.0018 29.8551C9.028 29.8551 8.05788 29.5663 7.23095 28.9965C6.9543 28.8052 6.88483 28.4255 7.07556 28.1483C7.2663 27.8704 7.64594 27.8021 7.92381 27.9929C9.07919 28.7918 10.613 28.8527 11.8299 28.1507L11.9823 28.0587C12.2668 27.8795 12.6428 27.9654 12.822 28.2506C13.0011 28.5358 12.9146 28.9118 12.63 29.0903L12.4454 29.2031C11.6898 29.6394 10.8445 29.8551 10.0018 29.8551ZM33.7528 14.3209C32.6669 14.3209 31.6541 13.7371 31.1105 12.7975C30.2714 11.3411 30.7717 9.47456 32.2263 8.63484C32.6894 8.36794 33.2153 8.22656 33.7473 8.22656C34.8338 8.22656 35.8454 8.81034 36.3883 9.75C37.228 11.2046 36.7284 13.0717 35.2732 13.9126C34.81 14.1795 34.2848 14.3209 33.7528 14.3209ZM33.7473 9.44531C33.4292 9.44531 33.1135 9.53002 32.8357 9.69028C31.963 10.1936 31.6626 11.3143 32.166 12.1881C32.492 12.7518 33.0995 13.1022 33.7528 13.1022C34.0709 13.1022 34.3865 13.0169 34.6638 12.8572C35.537 12.3533 35.8368 11.2326 35.3329 10.3594C35.0069 9.79509 34.3993 9.44531 33.7473 9.44531Z" fill="#432B75"/>
<path d="M30.9562 18.4149C30.7325 18.4149 30.5174 18.2918 30.4102 18.0779C30.2597 17.7769 30.3815 17.4106 30.6826 17.2601C30.7319 17.2351 30.7795 17.2089 30.8264 17.1815C32.0476 16.4771 32.7605 15.1121 32.6423 13.7068C32.6137 13.3711 32.8629 13.0768 33.1981 13.0487C33.532 13.0207 33.8288 13.2693 33.8562 13.6045C34.014 15.4789 33.0634 17.2973 31.4351 18.2376C31.3669 18.2766 31.2986 18.3149 31.2267 18.3509C31.1408 18.3942 31.0476 18.4149 30.9562 18.4149ZM31.4223 11.114C31.3029 11.114 31.1823 11.0786 31.0768 11.0061C29.9215 10.2078 28.3877 10.1463 27.1707 10.8483C27.1202 10.8775 27.0702 10.908 27.0208 10.9391C26.7356 11.1194 26.3603 11.0335 26.1799 10.7489C26.0001 10.4644 26.0854 10.0878 26.37 9.90801C26.4334 9.8684 26.4968 9.8294 26.5614 9.79222C28.1841 8.85622 30.2286 8.9391 31.7697 10.0025C32.0463 10.1938 32.1158 10.5734 31.9251 10.8507C31.8062 11.0226 31.6161 11.114 31.4223 11.114ZM19.0667 25.4172C17.6023 25.4172 16.2251 24.8462 15.188 23.8103C13.0509 21.6714 13.0521 18.1912 15.1904 16.0536C16.6237 14.6203 20.3311 12.6209 23.1123 12.6209C24.1574 12.6209 24.9721 12.9061 25.5327 13.4674C26.5486 14.4832 26.6479 16.3893 25.813 18.8353C25.1604 20.7494 24.0081 22.7488 22.9465 23.8097C21.9094 24.8456 20.5316 25.4172 19.0667 25.4172ZM23.1123 13.8397C20.9051 13.8397 17.4451 15.5222 16.0521 16.9152C14.3891 18.5782 14.3879 21.2856 16.0496 22.9486C16.8558 23.7542 17.9277 24.1985 19.0667 24.1985C20.2062 24.1985 21.2781 23.7542 22.0843 22.9474C23.0111 22.0206 24.0702 20.1668 24.6595 18.4411C25.3268 16.4874 25.331 14.9884 24.6711 14.3284C24.3463 14.0042 23.8222 13.8397 23.1123 13.8397Z" fill="#432B75"/>
<path d="M13.8986 25.7105C13.7426 25.7105 13.5866 25.6507 13.4678 25.5319C13.2295 25.2936 13.2295 24.9085 13.4678 24.6703L19.4994 18.6387C19.7376 18.4004 20.1227 18.4004 20.361 18.6387C20.5993 18.8769 20.5993 19.2621 20.361 19.5003L14.3294 25.5319C14.21 25.6513 14.054 25.7105 13.8986 25.7105Z" fill="#432B75"/>
</svg>
