<svg width="22" height="22" viewBox="0 0 22 22" fill="none" xmlns="http://www.w3.org/2000/svg">
<path fill-rule="evenodd" clip-rule="evenodd" d="M7.58924 6.3246C7.67284 7.2739 7.88382 8.32463 8.0222 8.91709C7.7142 8.64649 6.4239 7.35794 6.48924 8.49733C6.56932 9.88641 7.72234 10.0958 7.7252 10.0965L7.91814 10.1374V10.3337C7.91814 10.3378 7.8913 11.7722 9.09734 12.4298C9.70058 12.7589 10.3507 12.9237 11.0003 12.9237C11.6498 12.9237 12.2994 12.7589 12.9027 12.4298C14.1089 11.7722 14.0821 10.3378 14.0821 10.3337V10.1374L14.2746 10.0965C14.2779 10.0958 15.4309 9.88641 15.511 8.49733C15.5746 7.38654 14.336 8.59721 14.0174 8.86715C14.1239 8.31275 14.3054 7.3575 14.3919 6.4643C14.3318 6.25794 14.2566 6.09008 14.1637 6.00428C13.7708 5.64216 12.5199 6.51116 11.907 5.81134C11.294 5.1113 11.2201 4.99096 10.4598 5.08732C9.6997 5.18412 10.4349 6.05268 9.307 5.88372C8.22482 5.72202 7.85478 5.86172 7.6152 6.2773L7.58924 6.3246ZM7.11646 7.59488C7.01328 7.3421 6.93518 7.0077 6.97698 6.60774C7.07488 5.66658 6.31456 5.01472 7.29576 3.88062C8.27696 2.74652 7.98282 2.36042 8.93938 2.336C9.8955 2.31202 10.7295 1.63596 11.5143 2.11864C12.2994 2.6011 12.8391 1.90172 13.4027 2.93946C13.9673 3.97698 14.4823 3.27738 14.752 4.26672C15.0217 5.25628 15.3898 5.35286 15.1201 6.17346C14.9634 6.64976 14.8233 7.25608 14.7333 7.6809C15.2846 7.34342 16.0775 7.09284 15.9954 8.52351C15.9158 9.91171 14.9676 10.381 14.5599 10.5193C14.5221 10.9855 14.3091 12.2147 13.1341 12.8555C13.067 12.892 12.9997 12.9266 12.9315 12.9596C13.4984 13.0971 14.2638 12.9303 14.9766 13.459C15.9182 14.1581 15.8269 15.3433 15.8269 15.3433C15.8269 15.3433 17.1947 15.1609 17.8628 16.4976C18.5314 17.8346 18.0148 19.5057 18.0148 19.5057C9.54284 20.2361 12.4574 20.2361 3.98542 19.5057C3.98542 19.5057 3.46886 17.8346 4.137 16.4976C4.80558 15.1609 6.17332 15.3433 6.17332 15.3433C6.17332 15.3433 6.08202 14.1581 7.02362 13.459C7.73642 12.9303 8.50136 13.0971 9.06874 12.9596C9.00054 12.9266 8.933 12.892 8.86568 12.8555C7.6911 12.2147 7.47814 10.9855 7.4403 10.5193C7.03264 10.381 6.08444 9.91171 6.0048 8.52351C5.92978 7.2189 6.58296 7.3124 7.11646 7.59488ZM12.4193 13.1712C12.3835 13.7179 12.3329 14.5843 12.3329 14.9176C12.3329 15.4341 12.7586 15.0392 13.4267 15.4341C15.5224 16.6725 6.47802 16.6725 8.57352 15.4341C9.24166 15.0392 9.66736 15.4341 9.66736 14.9176C9.66736 14.5843 9.61676 13.7181 9.5809 13.1712C10.0447 13.3305 10.5225 13.4099 11.0003 13.4099C11.478 13.4099 11.9558 13.3303 12.4193 13.1712Z" fill="white"/>
</svg>
