<svg width="31" height="31" viewBox="0 0 31 31" fill="none" xmlns="http://www.w3.org/2000/svg">
<path d="M21.2358 3.29401C20.1218 3.29538 19.0234 3.55643 18.0279 4.05644C17.0324 4.55644 16.1671 5.28163 15.5008 6.17443C14.597 4.96406 13.3341 4.07001 11.8921 3.61981C10.4502 3.16962 8.90292 3.18627 7.47101 3.66739C6.03909 4.14852 4.79568 5.06954 3.91813 6.29908C3.04059 7.52862 2.57373 9.00388 2.58416 10.5144C2.58166 11.966 2.80834 13.4089 3.25582 14.7898C5.29666 21.2482 11.587 25.1103 14.7 26.1694C15.2226 26.3244 15.779 26.3244 16.3017 26.1694C16.7529 26.0194 17.1931 25.8382 17.6192 25.6269C18.7127 25.113 19.7587 24.5036 20.745 23.8057C20.7078 23.7788 20.6732 23.7485 20.6417 23.7153L19.1175 22.1911C19.0256 22.1023 18.9525 21.996 18.9025 21.8784C18.8526 21.7608 18.8269 21.6343 18.8269 21.5065C18.8269 21.3787 18.8526 21.2523 18.9025 21.1347C18.9525 21.017 19.0256 20.9107 19.1175 20.8219C19.2999 20.6419 19.5458 20.541 19.8021 20.541C20.0583 20.541 20.3043 20.6419 20.4867 20.8219L21.3521 21.6873L23.9742 19.2719C24.0664 19.1833 24.1755 19.1142 24.295 19.0687C24.4145 19.0231 24.5419 19.0022 24.6697 19.007C24.7975 19.0118 24.923 19.0423 25.0387 19.0967C25.1545 19.1511 25.2581 19.2283 25.3433 19.3236C25.3562 19.3364 25.3692 19.3494 25.3692 19.3623C25.8693 18.6935 26.3143 17.985 26.6996 17.244C27.1317 16.4641 27.4823 15.6417 27.7458 14.7898C28.1933 13.4089 28.42 11.966 28.4175 10.5144C28.4202 9.56871 28.2367 8.63172 27.8772 7.75698C27.5177 6.88224 26.9895 6.08689 26.3225 5.41637C25.6556 4.74585 24.8631 4.2133 23.9903 3.84914C23.1175 3.48497 22.1815 3.29634 21.2358 3.29401Z" fill="#C0CDEA"/>
<path d="M26.6997 17.2442C26.1263 16.63 25.4322 16.1409 24.6609 15.8075C23.8897 15.4741 23.0579 15.3036 22.2176 15.3067C20.5734 15.3071 18.9967 15.9605 17.834 17.1231C16.6714 18.2857 16.018 19.8625 16.0176 21.5067C16.0135 22.634 16.3268 23.7396 16.9218 24.6971C17.1163 25.0339 17.3504 25.3461 17.6193 25.6271C18.1921 26.2829 18.8991 26.8079 19.6924 27.1667C20.4857 27.5255 21.3469 27.7097 22.2176 27.7067C23.2858 27.7088 24.3361 27.4324 25.2649 26.9046C26.1936 26.3768 26.9686 25.6159 27.5135 24.6971C28.2234 23.5404 28.5288 22.1806 28.3815 20.8314C28.2342 19.4823 27.6426 18.2204 26.6997 17.2442ZM25.2918 20.6929L21.9851 23.7413C21.8084 23.9112 21.5715 24.0041 21.3264 23.9996C21.1166 24.0007 20.9123 23.9326 20.7451 23.8058C20.708 23.779 20.6734 23.7487 20.6418 23.7154L19.1176 22.1913C19.0257 22.1025 18.9526 21.9962 18.9027 21.8785C18.8527 21.7609 18.827 21.6345 18.827 21.5067C18.827 21.3789 18.8527 21.2524 18.9027 21.1348C18.9526 21.0172 19.0257 20.9109 19.1176 20.8221C19.3 20.6421 19.546 20.5412 19.8022 20.5412C20.0585 20.5412 20.3044 20.6421 20.4868 20.8221L21.3522 21.6875L23.9743 19.2721C24.0665 19.1835 24.1756 19.1144 24.2951 19.0688C24.4146 19.0233 24.5421 19.0023 24.6698 19.0072C24.7976 19.012 24.9231 19.0425 25.0389 19.0969C25.1546 19.1513 25.2582 19.2285 25.3435 19.3238C25.3564 19.3366 25.3693 19.3496 25.3693 19.3625C25.5298 19.5517 25.6113 19.7955 25.5969 20.0432C25.5824 20.291 25.4732 20.5236 25.2918 20.6929Z" fill="#432B75"/>
</svg>
