<?xml version="1.0" encoding="UTF-8" standalone="no"?>
<svg
   width="24.002417"
   height="23.999998"
   viewBox="0 0 24.002416 23.999998"
   fill="none"
   version="1.1"
   id="svg4"
   sodipodi:docname="off_day.svg"
   inkscape:version="1.1.2 (0a00cf5339, 2022-02-04)"
   xmlns:inkscape="http://www.inkscape.org/namespaces/inkscape"
   xmlns:sodipodi="http://sodipodi.sourceforge.net/DTD/sodipodi-0.dtd"
   xmlns="http://www.w3.org/2000/svg"
   xmlns:svg="http://www.w3.org/2000/svg">
  <defs
     id="defs8" />
  <sodipodi:namedview
     id="namedview6"
     pagecolor="#ffffff"
     bordercolor="#000000"
     borderopacity="0.25"
     inkscape:pageshadow="2"
     inkscape:pageopacity="0.0"
     inkscape:pagecheckerboard="0"
     showgrid="false"
     inkscape:zoom="12.433294"
     inkscape:cx="2.9758807"
     inkscape:cy="22.319105"
     inkscape:window-width="1920"
     inkscape:window-height="1016"
     inkscape:window-x="0"
     inkscape:window-y="27"
     inkscape:window-maximized="1"
     inkscape:current-layer="svg4" />
  <path
     d="m 13.980246,11.998804 8.842579,-8.8285536 c 0.264314,-0.2642822 0.412808,-0.6227626 0.412808,-0.9965549 0,-0.3737618 -0.148494,-0.7322423 -0.412808,-0.9965243 C 22.558543,0.91285843 22.200063,0.764395 21.826302,0.764395 c -0.373793,0 -0.732243,0.14846343 -0.996555,0.4127762 L 12.001224,10.019751 3.1726696,1.1771712 C 2.9083568,0.91285843 2.549907,0.764395 2.1761147,0.764395 c -0.3737617,0 -0.7322422,0.14846343 -0.9965243,0.4127762 -0.2643127,0.264282 -0.41280682,0.6227625 -0.41280682,0.9965243 0,0.3737922 0.14849412,0.7322726 0.41280682,0.9965549 L 10.02217,11.998804 1.1795904,20.827358 C 1.0480312,20.957815 0.94360461,21.113077 0.87234331,21.28411 0.80108161,21.455143 0.764395,21.638609 0.764395,21.823882 c 0,0.185304 0.0366866,0.36874 0.10794831,0.539803 0.0712618,0.171034 0.17568789,0.326264 0.30724709,0.456752 0.1304567,0.13156 0.2857187,0.235956 0.4567518,0.307216 0.171033,0.07126 0.3544994,0.10795 0.5397725,0.10795 0.1853036,0 0.3687394,-0.03669 0.539803,-0.10795 0.1710331,-0.07126 0.3262645,-0.175656 0.4567519,-0.307216 l 8.8285544,-8.842579 8.828523,8.842579 c 0.130487,0.13156 0.285719,0.235956 0.456751,0.307216 0.171065,0.07126 0.3545,0.10795 0.539804,0.10795 0.185273,0 0.368739,-0.03669 0.539772,-0.10795 0.171033,-0.07126 0.326295,-0.175656 0.456751,-0.307216 0.13156,-0.130488 0.235987,-0.285718 0.307248,-0.456752 0.07126,-0.171063 0.107949,-0.354499 0.107949,-0.539803 0,-0.185273 -0.03669,-0.368739 -0.107949,-0.539772 -0.07126,-0.171033 -0.175688,-0.326295 -0.307248,-0.456752 z"
     fill="#eb0067"
     stroke="#eb0067"
     stroke-width="1.52879"
     id="path2" />
</svg>
