<svg width="30" height="30" viewBox="0 0 30 30" fill="none" xmlns="http://www.w3.org/2000/svg">
<path d="M5.62513 29.0621H24.3752C24.6832 29.0628 24.9882 29.0027 25.2728 28.8852C25.5575 28.7677 25.8161 28.5952 26.0339 28.3775C26.2516 28.1598 26.4243 27.9012 26.5419 27.6166C26.6595 27.3321 26.7197 27.027 26.7191 26.7191V5.62513C26.7198 5.31713 26.6597 5.01203 26.5421 4.72734C26.4246 4.44265 26.252 4.18399 26.0342 3.9662C25.8164 3.74841 25.5577 3.57579 25.273 3.45825C24.9883 3.3407 24.6832 3.28056 24.3752 3.28126H5.62513C5.31713 3.28056 5.01203 3.3407 4.72734 3.45825C4.44265 3.57579 4.18399 3.74841 3.9662 3.9662C3.74841 4.18399 3.57579 4.44265 3.45825 4.72734C3.3407 5.01203 3.28056 5.31713 3.28126 5.62513V26.7191C3.28067 27.027 3.34091 27.3321 3.4585 27.6166C3.5761 27.9012 3.74874 28.1598 3.96651 28.3775C4.18429 28.5952 4.44292 28.7677 4.72755 28.8852C5.01218 29.0027 5.31721 29.0628 5.62513 29.0621Z" fill="#A8D0FF"/>
<path d="M5.74219 3.28125V24.5037C5.74219 25.5295 6.56866 26.355 7.59355 26.355H22.4062C23.432 26.355 24.2576 25.5295 24.2576 24.5037V3.28125H5.74219Z" fill="#A8D0FF"/>
<path d="M13.0076 0.937503C12.8536 0.937153 12.701 0.967227 12.5587 1.026C12.4163 1.08477 12.287 1.17108 12.1781 1.27997C12.0692 1.38887 11.9829 1.5182 11.9241 1.66055C11.8654 1.80289 11.8353 1.95544 11.8356 2.10944H10.8692C10.7152 2.10909 10.5627 2.13916 10.4203 2.19793C10.278 2.25671 10.1486 2.34302 10.0397 2.45191C9.93085 2.56081 9.84454 2.69014 9.78576 2.83248C9.72699 2.97483 9.69692 3.12738 9.69727 3.28138V3.98472C9.69727 4.63402 10.2199 5.15665 10.8692 5.15665H19.1303C19.2843 5.157 19.4369 5.12693 19.5792 5.06816C19.7216 5.00939 19.8509 4.92308 19.9598 4.81418C20.0687 4.70529 20.155 4.57596 20.2138 4.43361C20.2726 4.29127 20.3026 4.13872 20.3023 3.98472V3.28138C20.3026 3.12738 20.2726 2.97483 20.2138 2.83248C20.155 2.69014 20.0687 2.56081 19.9598 2.45191C19.8509 2.34302 19.7216 2.25671 19.5792 2.19793C19.4369 2.13916 19.2843 2.10909 19.1303 2.10944H18.1639C18.1643 1.95544 18.1342 1.80289 18.0754 1.66055C18.0167 1.5182 17.9303 1.38887 17.8214 1.27997C17.7126 1.17108 17.5832 1.08477 17.4409 1.026C17.2985 0.967227 17.146 0.937153 16.992 0.937503H13.0076Z" fill="#432B75"/>
<path d="M15.7366 10.44C15.1785 10.44 14.6222 10.6526 14.1952 11.0796C13.9922 11.2816 13.8311 11.5218 13.7212 11.7863C13.6113 12.0508 13.5547 12.3344 13.5547 12.6209C13.5547 12.9073 13.6113 13.1909 13.7212 13.4554C13.8311 13.7199 13.9922 13.9601 14.1952 14.1622L17.1335 17.0996C17.2575 17.2236 17.4692 17.3981 17.851 17.3981C18.2319 17.3981 18.4179 17.2484 18.5676 17.0996L21.5059 14.1613C21.7088 13.9593 21.8698 13.7191 21.9796 13.4547C22.0895 13.1903 22.146 12.9068 22.146 12.6204C22.146 12.3341 22.0895 12.0506 21.9796 11.7862C21.8698 11.5217 21.7088 11.2816 21.5059 11.0796C21.3038 10.8767 21.0637 10.7157 20.7993 10.6058C20.5349 10.496 20.2513 10.4395 19.965 10.4395C19.6787 10.4395 19.3952 10.496 19.1307 10.6058C18.8663 10.7157 18.6262 10.8767 18.4241 11.0796L17.8501 11.6536L17.277 11.0796C17.0749 10.8766 16.8347 10.7156 16.5702 10.6058C16.3057 10.4961 16.0221 10.4397 15.7357 10.44H15.7366Z" fill="white"/>
<path d="M10.4597 8.85085C9.79354 8.85085 9.1274 9.10596 8.61717 9.61619C8.37451 9.85776 8.18197 10.1449 8.05058 10.4611C7.9192 10.7773 7.85156 11.1163 7.85156 11.4587C7.85156 11.8011 7.9192 12.1401 8.05058 12.4563C8.18197 12.7725 8.37451 13.0596 8.61717 13.3012L12.1303 16.8135C12.2783 16.9623 12.5307 17.1696 12.9878 17.1696C13.444 17.1696 13.6663 16.9924 13.8444 16.8135L17.3575 13.3012C17.6002 13.0596 17.7927 12.7725 17.9241 12.4563C18.0555 12.1401 18.1231 11.8011 18.1231 11.4587C18.1231 11.1163 18.0555 10.7773 17.9241 10.4611C17.7927 10.1449 17.6002 9.85776 17.3575 9.61619C17.116 9.37354 16.8288 9.18099 16.5127 9.0496C16.1965 8.91822 15.8574 8.85059 15.515 8.85059C15.1726 8.85059 14.8336 8.91822 14.5174 9.0496C14.2012 9.18099 13.9141 9.37354 13.6725 9.61619L12.9869 10.3027L12.3013 9.61619C12.0598 9.37347 11.7727 9.18089 11.4565 9.04954C11.1402 8.91819 10.8012 8.85067 10.4588 8.85085H10.4597Z" fill="#432B75"/>
<path d="M9.24822 22.4733C9.40478 22.4776 9.5606 22.4505 9.7065 22.3936C9.8524 22.3366 9.9854 22.251 10.0977 22.1418C10.2099 22.0326 10.2991 21.902 10.3601 21.7577C10.421 21.6135 10.4524 21.4584 10.4524 21.3018C10.4524 21.1452 10.421 20.9902 10.3601 20.8459C10.2991 20.7016 10.2099 20.571 10.0977 20.4618C9.9854 20.3526 9.8524 20.267 9.7065 20.2101C9.5606 20.1531 9.40478 20.126 9.24822 20.1303H8.93464C8.62952 20.1387 8.33971 20.2658 8.12686 20.4846C7.91401 20.7034 7.79492 20.9966 7.79492 21.3018C7.79492 21.6071 7.91401 21.9003 8.12686 22.119C8.33971 22.3378 8.62952 22.4649 8.93464 22.4733H9.24822ZM21.0624 22.4733C21.2189 22.4776 21.3748 22.4505 21.5207 22.3936C21.6666 22.3366 21.7996 22.251 21.9118 22.1418C22.0241 22.0326 22.1133 21.902 22.1742 21.7577C22.2351 21.6135 22.2665 21.4584 22.2665 21.3018C22.2665 21.1452 22.2351 20.9902 22.1742 20.8459C22.1133 20.7016 22.0241 20.571 21.9118 20.4618C21.7996 20.3526 21.6666 20.267 21.5207 20.2101C21.3748 20.1531 21.2189 20.126 21.0624 20.1303H12.8686C12.5634 20.1387 12.2736 20.2658 12.0608 20.4846C11.8479 20.7034 11.7288 20.9966 11.7288 21.3018C11.7288 21.6071 11.8479 21.9003 12.0608 22.119C12.2736 22.3378 12.5634 22.4649 12.8686 22.4733H21.0624Z" fill="white"/>
</svg>
