<?xml version="1.0" encoding="UTF-8" standalone="no"?>
<svg
   width="21.377892"
   height="24"
   viewBox="0 0 21.377892 24"
   fill="none"
   version="1.1"
   id="svg8"
   sodipodi:docname="select_hand.svg"
   inkscape:version="1.1.2 (0a00cf5339, 2022-02-04)"
   xmlns:inkscape="http://www.inkscape.org/namespaces/inkscape"
   xmlns:sodipodi="http://sodipodi.sourceforge.net/DTD/sodipodi-0.dtd"
   xmlns="http://www.w3.org/2000/svg"
   xmlns:svg="http://www.w3.org/2000/svg">
  <defs
     id="defs12" />
  <sodipodi:namedview
     id="namedview10"
     pagecolor="#ffffff"
     bordercolor="#000000"
     borderopacity="0.25"
     inkscape:pageshadow="2"
     inkscape:pageopacity="0.0"
     inkscape:pagecheckerboard="0"
     showgrid="false"
     inkscape:zoom="14.066667"
     inkscape:cx="1.3507109"
     inkscape:cy="14.111375"
     inkscape:window-width="1920"
     inkscape:window-height="1016"
     inkscape:window-x="0"
     inkscape:window-y="27"
     inkscape:window-maximized="1"
     inkscape:current-layer="svg8" />
  <path
     d="m 17.674775,9.8149053 h 2.359972 c 0.355084,8.51e-5 0.695678,0.1410187 0.946977,0.3919197 0.251327,0.250874 0.392828,0.591213 0.393537,0.946297 0.0057,2.878023 0.0011,2.997491 -0.004,7.689304 -0.0023,2.623576 -1.972872,4.810089 -4.506274,5.155277 V 24 H 9.3255793 V 23.9977 C 8.5259725,23.886941 7.7630595,23.591945 7.0969568,23.135938 6.4308542,22.67996 5.8797953,22.075448 5.4872512,21.3701 L 0,11.518415 0.57317724,11.078459 C 1.1446814,10.590267 1.8855044,10.346852 2.6352032,10.400928 c 0.7496703,0.05408 1.4479013,0.401278 1.9434375,0.96643 l 1.5352121,1.760933 0.00862,-11.238136 C 6.1227001,1.3888341 6.3220205,0.90812855 6.6765664,0.55366778 7.0310838,0.19923537 7.5118744,8.5119759e-5 8.0131954,4.9174296e-8 h 5.671e-4 C 8.2623955,-5.666455e-5 8.5085898,0.048944 8.738252,0.14413798 8.9679426,0.23936033 9.176564,0.3789328 9.3522348,0.55485877 9.5279055,0.7308131 9.6671661,0.93966138 9.7620198,1.1694654 c 0.094882,0.2298324 0.1434857,0.4760833 0.1430603,0.7247163 -0.0023,1.2543657 -0.00632,2.9636039 -0.00975,4.6423868 h 2.5477789 c 0.355567,1.418e-4 0.696558,0.1415008 0.947913,0.3929978 0.251384,0.251497 0.392601,0.5925166 0.392601,0.9481117 v 0.338269 h 2.550643 c 0.355567,1.417e-4 0.696558,0.1415007 0.947942,0.3929977 0.251383,0.2514686 0.392572,0.5925166 0.392572,0.9480833 z"
     fill="#f7caa5"
     id="path2"
     style="stroke-width:2.83569" />
</svg>
