<svg width="34" height="34" viewBox="0 0 34 34" fill="none" xmlns="http://www.w3.org/2000/svg">
<path d="M14.166 27.9795H9.91602C9.32952 27.9795 8.85352 27.5035 8.85352 26.917C8.85352 26.3305 9.32952 25.8545 9.91602 25.8545H14.166C14.7525 25.8545 15.2285 26.3305 15.2285 26.917C15.2285 27.5035 14.7525 27.9795 14.166 27.9795ZM25.1452 26.917C25.1452 26.3305 24.6692 25.8545 24.0827 25.8545H19.8327C19.2462 25.8545 18.7702 26.3305 18.7702 26.917C18.7702 27.5035 19.2462 27.9795 19.8327 27.9795H24.0827C24.6692 27.9795 25.1452 27.5035 25.1452 26.917Z" fill="#549BFF"/>
<path d="M10.9792 26.9163C10.9792 29.0654 9.23242 30.8122 7.08333 30.8122C4.93425 30.8122 3.1875 29.0654 3.1875 26.9163C3.1875 24.7673 4.93425 23.0205 7.08333 23.0205C9.23242 23.0205 10.9792 24.7673 10.9792 26.9163ZM18.4167 23.0205H15.5833C14.2162 23.0205 13.1042 24.1326 13.1042 25.4997V28.333C13.1042 29.7001 14.2162 30.8122 15.5833 30.8122H18.4167C19.7837 30.8122 20.8958 29.7001 20.8958 28.333V25.4997C20.8958 24.1326 19.7837 23.0205 18.4167 23.0205ZM26.9167 23.0205C24.7676 23.0205 23.0208 24.7673 23.0208 26.9163C23.0208 29.0654 24.7676 30.8122 26.9167 30.8122C29.0657 30.8122 30.8125 29.0654 30.8125 26.9163C30.8125 24.7673 29.0657 23.0205 26.9167 23.0205Z" fill="#BAD7FF"/>
<path d="M22.6667 3.1875H11.3333C9.18172 3.1875 7.4375 4.93172 7.4375 7.08333V17C7.4375 19.1516 9.18172 20.8958 11.3333 20.8958H22.6667C24.8183 20.8958 26.5625 19.1516 26.5625 17V7.08333C26.5625 4.93172 24.8183 3.1875 22.6667 3.1875Z" fill="#BAD7FF"/>
<path d="M20.8952 3.1875H13.1035V8.5C13.1035 9.8685 14.2142 10.9792 15.5827 10.9792H18.416C19.7845 10.9792 20.8952 9.8685 20.8952 8.5V3.1875Z" fill="#432B75"/>
</svg>
